<svg width="71" height="73" viewBox="0 0 71 73" fill="none" xmlns="http://www.w3.org/2000/svg">
<g filter="url(#filter0_d)">
<rect x="23" y="1" width="43" height="63" rx="14" stroke="#1343B6" stroke-width="2"/>
</g>
<g filter="url(#filter1_d)">
<path d="M40.7071 33.7071C41.0976 33.3166 41.0976 32.6834 40.7071 32.2929L34.3431 25.9289C33.9526 25.5384 33.3195 25.5384 32.9289 25.9289C32.5384 26.3195 32.5384 26.9526 32.9289 27.3431L38.5858 33L32.9289 38.6569C32.5384 39.0474 32.5384 39.6805 32.9289 40.0711C33.3195 40.4616 33.9526 40.4616 34.3431 40.0711L40.7071 33.7071ZM4 34H40V32H4V34Z" fill="#1343B6"/>
</g>
<defs>
<filter id="filter0_d" x="18" y="0" width="53" height="73" filterUnits="userSpaceOnUse" color-interpolation-filters="sRGB">
<feFlood flood-opacity="0" result="BackgroundImageFix"/>
<feColorMatrix in="SourceAlpha" type="matrix" values="0 0 0 0 0 0 0 0 0 0 0 0 0 0 0 0 0 0 127 0"/>
<feOffset dy="4"/>
<feGaussianBlur stdDeviation="2"/>
<feColorMatrix type="matrix" values="0 0 0 0 0 0 0 0 0 0 0 0 0 0 0 0 0 0 0.4 0"/>
<feBlend mode="normal" in2="BackgroundImageFix" result="effect1_dropShadow"/>
<feBlend mode="normal" in="SourceGraphic" in2="effect1_dropShadow" result="shape"/>
</filter>
<filter id="filter1_d" x="0" y="25.636" width="45" height="22.7279" filterUnits="userSpaceOnUse" color-interpolation-filters="sRGB">
<feFlood flood-opacity="0" result="BackgroundImageFix"/>
<feColorMatrix in="SourceAlpha" type="matrix" values="0 0 0 0 0 0 0 0 0 0 0 0 0 0 0 0 0 0 127 0"/>
<feOffset dy="4"/>
<feGaussianBlur stdDeviation="2"/>
<feColorMatrix type="matrix" values="0 0 0 0 0 0 0 0 0 0 0 0 0 0 0 0 0 0 0.4 0"/>
<feBlend mode="normal" in2="BackgroundImageFix" result="effect1_dropShadow"/>
<feBlend mode="normal" in="SourceGraphic" in2="effect1_dropShadow" result="shape"/>
</filter>
</defs>
</svg>
